<svg xmlns="http://www.w3.org/2000/svg" xmlns:xlink="http://www.w3.org/1999/xlink" width="30" viewBox="0 0 30 30" height="30" version="1.0"><defs><g id="b"><path d="M 4.40625 0 L 3.75 0 L 2.84375 -2.953125 L 1.9375 0 L 1.28125 0 L 0.015625 -3.796875 L 0.703125 -3.796875 L 1.625 -0.703125 L 2.546875 -3.796875 L 3.171875 -3.796875 L 4.09375 -0.703125 L 5.015625 -3.796875 L 5.671875 -3.796875 Z M 4.40625 0"/></g><g id="c"><path d="M 1.640625 -2.90625 C 2.140625 -2.90625 2.5 -2.753906 2.71875 -2.453125 C 2.945312 -2.160156 3.039062 -1.742188 3 -1.203125 L 0.8125 -1.203125 C 0.863281 -0.984375 0.96875 -0.804688 1.125 -0.671875 C 1.289062 -0.546875 1.488281 -0.484375 1.71875 -0.484375 C 2.039062 -0.484375 2.3125 -0.59375 2.53125 -0.8125 L 2.859375 -0.46875 C 2.554688 -0.144531 2.160156 0.015625 1.671875 0.015625 C 1.222656 0.015625 0.863281 -0.113281 0.59375 -0.375 C 0.320312 -0.644531 0.1875 -1 0.1875 -1.4375 C 0.1875 -1.875 0.320312 -2.226562 0.59375 -2.5 C 0.863281 -2.769531 1.210938 -2.90625 1.640625 -2.90625 Z M 0.8125 -1.65625 L 2.453125 -1.65625 C 2.441406 -1.882812 2.363281 -2.066406 2.21875 -2.203125 C 2.070312 -2.335938 1.882812 -2.40625 1.65625 -2.40625 C 1.425781 -2.40625 1.234375 -2.335938 1.078125 -2.203125 C 0.929688 -2.066406 0.84375 -1.882812 0.8125 -1.65625 Z M 0.8125 -1.65625"/></g><g id="d"><path d="M 2.125 -2.90625 C 2.53125 -2.90625 2.859375 -2.769531 3.109375 -2.5 C 3.367188 -2.226562 3.5 -1.875 3.5 -1.4375 C 3.5 -1 3.375 -0.644531 3.125 -0.375 C 2.875 -0.113281 2.539062 0.015625 2.125 0.015625 C 1.664062 0.015625 1.328125 -0.15625 1.109375 -0.5 L 1.109375 0 L 0.484375 0 L 0.484375 -4.015625 L 1.109375 -4.015625 L 1.109375 -2.390625 C 1.328125 -2.734375 1.664062 -2.90625 2.125 -2.90625 Z M 1.359375 -0.765625 C 1.523438 -0.597656 1.734375 -0.515625 1.984375 -0.515625 C 2.242188 -0.515625 2.457031 -0.597656 2.625 -0.765625 C 2.789062 -0.941406 2.875 -1.171875 2.875 -1.453125 C 2.875 -1.722656 2.789062 -1.945312 2.625 -2.125 C 2.457031 -2.300781 2.242188 -2.390625 1.984375 -2.390625 C 1.734375 -2.390625 1.523438 -2.300781 1.359375 -2.125 C 1.191406 -1.945312 1.109375 -1.722656 1.109375 -1.453125 C 1.109375 -1.171875 1.191406 -0.941406 1.359375 -0.765625 Z M 1.359375 -0.765625"/></g><g id="e"><path d="M 2.171875 -3.8125 C 2.441406 -3.8125 2.703125 -3.757812 2.953125 -3.65625 C 3.210938 -3.550781 3.4375 -3.40625 3.625 -3.21875 L 3.25 -2.765625 C 3.113281 -2.910156 2.953125 -3.023438 2.765625 -3.109375 C 2.578125 -3.203125 2.382812 -3.25 2.1875 -3.25 C 1.8125 -3.25 1.488281 -3.117188 1.21875 -2.859375 C 0.957031 -2.597656 0.828125 -2.28125 0.828125 -1.90625 C 0.828125 -1.53125 0.957031 -1.210938 1.21875 -0.953125 C 1.488281 -0.691406 1.8125 -0.5625 2.1875 -0.5625 C 2.582031 -0.5625 2.9375 -0.710938 3.25 -1.015625 L 3.625 -0.59375 C 3.425781 -0.40625 3.195312 -0.253906 2.9375 -0.140625 C 2.675781 -0.0234375 2.414062 0.03125 2.15625 0.03125 C 1.601562 0.03125 1.132812 -0.148438 0.75 -0.515625 C 0.375 -0.890625 0.1875 -1.351562 0.1875 -1.90625 C 0.1875 -2.445312 0.378906 -2.898438 0.765625 -3.265625 C 1.148438 -3.628906 1.617188 -3.8125 2.171875 -3.8125 Z M 2.171875 -3.8125"/></g><g id="f"><path d="M 2.171875 -2.90625 C 2.515625 -2.90625 2.78125 -2.804688 2.96875 -2.609375 C 3.15625 -2.410156 3.25 -2.140625 3.25 -1.796875 L 3.25 0 L 2.625 0 L 2.625 -1.625 C 2.625 -1.84375 2.5625 -2.015625 2.4375 -2.140625 C 2.320312 -2.265625 2.15625 -2.328125 1.9375 -2.328125 C 1.6875 -2.316406 1.484375 -2.226562 1.328125 -2.0625 C 1.179688 -1.894531 1.109375 -1.679688 1.109375 -1.421875 L 1.109375 0 L 0.484375 0 L 0.484375 -4.015625 L 1.109375 -4.015625 L 1.109375 -2.328125 C 1.304688 -2.710938 1.660156 -2.90625 2.171875 -2.90625 Z M 2.171875 -2.90625"/></g><g id="g"><path d="M 2.1875 0 L 2.1875 -0.359375 C 1.976562 -0.0976562 1.660156 0.03125 1.234375 0.03125 C 0.929688 0.03125 0.6875 -0.0507812 0.5 -0.21875 C 0.3125 -0.394531 0.21875 -0.613281 0.21875 -0.875 C 0.21875 -1.132812 0.3125 -1.34375 0.5 -1.5 C 0.695312 -1.65625 0.96875 -1.734375 1.3125 -1.734375 L 2.1875 -1.734375 L 2.1875 -1.828125 C 2.1875 -2.003906 2.125 -2.144531 2 -2.25 C 1.882812 -2.351562 1.71875 -2.40625 1.5 -2.40625 C 1.21875 -2.40625 0.929688 -2.304688 0.640625 -2.109375 L 0.390625 -2.546875 C 0.609375 -2.671875 0.804688 -2.757812 0.984375 -2.8125 C 1.160156 -2.875 1.375 -2.90625 1.625 -2.90625 C 2 -2.90625 2.285156 -2.816406 2.484375 -2.640625 C 2.691406 -2.460938 2.796875 -2.210938 2.796875 -1.890625 L 2.796875 0 Z M 1.359375 -0.46875 C 1.585938 -0.46875 1.773438 -0.519531 1.921875 -0.625 C 2.078125 -0.726562 2.164062 -0.859375 2.1875 -1.015625 L 2.1875 -1.28125 L 1.40625 -1.28125 C 1.195312 -1.28125 1.046875 -1.25 0.953125 -1.1875 C 0.859375 -1.125 0.8125 -1.023438 0.8125 -0.890625 C 0.8125 -0.765625 0.859375 -0.660156 0.953125 -0.578125 C 1.054688 -0.503906 1.191406 -0.46875 1.359375 -0.46875 Z M 1.359375 -0.46875"/></g><g id="h"><path d="M 2.125 -2.90625 C 2.53125 -2.90625 2.859375 -2.769531 3.109375 -2.5 C 3.367188 -2.226562 3.5 -1.875 3.5 -1.4375 C 3.5 -1 3.375 -0.644531 3.125 -0.375 C 2.875 -0.113281 2.539062 0.015625 2.125 0.015625 C 1.664062 0.015625 1.328125 -0.15625 1.109375 -0.5 L 1.109375 1.046875 L 0.484375 1.046875 L 0.484375 -2.890625 L 1.109375 -2.890625 L 1.109375 -2.390625 C 1.328125 -2.734375 1.664062 -2.90625 2.125 -2.90625 Z M 1.359375 -0.765625 C 1.523438 -0.597656 1.734375 -0.515625 1.984375 -0.515625 C 2.242188 -0.515625 2.457031 -0.597656 2.625 -0.765625 C 2.789062 -0.941406 2.875 -1.171875 2.875 -1.453125 C 2.875 -1.722656 2.789062 -1.945312 2.625 -2.125 C 2.457031 -2.300781 2.242188 -2.390625 1.984375 -2.390625 C 1.734375 -2.390625 1.523438 -2.300781 1.359375 -2.125 C 1.191406 -1.945312 1.109375 -1.722656 1.109375 -1.453125 C 1.109375 -1.171875 1.191406 -0.941406 1.359375 -0.765625 Z M 1.359375 -0.765625"/></g><clipPath id="a"><path d="M 0.484375 0 L 29.515625 0 L 29.515625 29.03125 L 0.484375 29.03125 Z M 0.484375 0"/></clipPath><clipPath id="i"><path d="M 1 8 L 12 8 L 12 20 L 1 20 Z M 1 8"/></clipPath><clipPath id="j"><path d="M 6.460938 5.773438 L 15.589844 11.703125 L 10.449219 19.617188 L 1.320312 13.683594 Z M 6.460938 5.773438"/></clipPath><clipPath id="k"><path d="M 6.460938 5.773438 L 15.589844 11.703125 L 10.449219 19.617188 L 1.320312 13.683594 Z M 6.460938 5.773438"/></clipPath></defs><g clip-path="url(#a)"><path fill="#FFF" d="M 0.222656 0 L 30.707031 0 L 30.707031 30.484375 L 0.222656 30.484375 Z M 0.222656 0"/></g><g fill="#222"><use x="11.562" y="13.302" xmlns:xlink="http://www.w3.org/1999/xlink" xlink:href="#b" xlink:type="simple" xlink:actuate="onLoad" xlink:show="embed"/></g><g fill="#222"><use x="17.172" y="13.302" xmlns:xlink="http://www.w3.org/1999/xlink" xlink:href="#c" xlink:type="simple" xlink:actuate="onLoad" xlink:show="embed"/></g><g fill="#222"><use x="20.355" y="13.302" xmlns:xlink="http://www.w3.org/1999/xlink" xlink:href="#d" xlink:type="simple" xlink:actuate="onLoad" xlink:show="embed"/></g><g fill="#222"><use x="11.562" y="18.168" xmlns:xlink="http://www.w3.org/1999/xlink" xlink:href="#e" xlink:type="simple" xlink:actuate="onLoad" xlink:show="embed"/></g><g fill="#222"><use x="15.336" y="18.168" xmlns:xlink="http://www.w3.org/1999/xlink" xlink:href="#f" xlink:type="simple" xlink:actuate="onLoad" xlink:show="embed"/></g><g fill="#222"><use x="18.959" y="18.168" xmlns:xlink="http://www.w3.org/1999/xlink" xlink:href="#c" xlink:type="simple" xlink:actuate="onLoad" xlink:show="embed"/></g><g fill="#222"><use x="22.142" y="18.168" xmlns:xlink="http://www.w3.org/1999/xlink" xlink:href="#g" xlink:type="simple" xlink:actuate="onLoad" xlink:show="embed"/></g><g fill="#222"><use x="25.315" y="18.168" xmlns:xlink="http://www.w3.org/1999/xlink" xlink:href="#h" xlink:type="simple" xlink:actuate="onLoad" xlink:show="embed"/></g><g clip-path="url(#i)"><g clip-path="url(#j)"><g clip-path="url(#k)"><path fill="#0D6EFD" d="M 10.820312 18.855469 L 11.203125 9.179688 L 11.203125 9.175781 C 11.210938 8.992188 11.128906 8.804688 10.960938 8.695312 C 10.808594 8.597656 10.628906 8.585938 10.472656 8.644531 L 10.46875 8.648438 C 10.4375 8.660156 10.410156 8.675781 10.382812 8.691406 L 1.859375 13.035156 C 1.761719 13.074219 1.679688 13.144531 1.617188 13.234375 C 1.457031 13.484375 1.527344 13.820312 1.777344 13.980469 L 9.988281 19.316406 C 10.238281 19.480469 10.570312 19.410156 10.734375 19.160156 C 10.796875 19.066406 10.824219 18.960938 10.820312 18.855469 Z M 10.820312 18.855469"/></g></g></g></svg>